<svg width="600" height="600" viewBox="0 0 600 600" fill="none" xmlns="http://www.w3.org/2000/svg">
<path d="M396.888 258.648V251.325C396.888 251.325 396.58 245.756 391.662 242.41C391.662 242.41 376.726 233.128 376.169 198.116C376.169 198.116 375.054 149.451 316.606 149.451H289.378" stroke="#2C343F" stroke-width="2.724" stroke-miterlimit="10" stroke-linecap="round" stroke-linejoin="round"/>
<path d="M194.055 258.648V251.325C194.055 251.325 194.366 245.756 199.281 242.41C199.281 242.41 214.217 233.128 214.777 198.116C214.777 198.116 215.886 149.451 274.337 149.451H301.565" stroke="#2C343F" stroke-width="2.724" stroke-miterlimit="10" stroke-linecap="round" stroke-linejoin="round"/>
<path d="M370.585 381.103C340.779 377.522 326.096 368.136 323.591 366.396H270.516C268.009 368.136 253.327 377.52 223.523 381.103C223.523 381.103 166.719 383.368 168.312 493.05C168.312 493.05 211.054 513.585 297.054 513.41C383.048 513.585 425.796 493.05 425.796 493.05C427.389 383.367 370.585 381.103 370.585 381.103Z" fill="#F7C7AD"/>
<path d="M223.522 381.103C223.522 381.103 166.718 383.368 168.311 493.05C168.311 493.05 211.053 513.585 297.053 513.41C383.047 513.585 425.795 493.05 425.795 493.05C427.388 383.368 370.584 381.103 370.584 381.103C370.584 381.103 315.263 376.924 297.053 402.005C297.053 402.005 279.5 371.154 223.522 381.103Z" fill="white"/>
<path d="M324.151 335.899H269.958V377.875H324.151V335.899Z" fill="#F7C7AD"/>
<path d="M269.959 347.866V347.876C270.555 348.629 271.156 349.375 271.803 350.082C273.493 351.942 275.251 353.737 277.146 355.364C277.212 355.418 277.256 355.457 277.316 355.507C277.923 355.983 278.541 356.448 279.167 356.902C280.128 357.588 281.093 358.274 282.087 358.903C283.53 359.815 284.994 360.702 286.502 361.493C286.986 361.69 288.403 362.319 288.84 362.476C290.298 363.002 291.757 363.526 293.249 363.937C294.779 364.365 296.313 364.788 297.868 365.112C297.463 365.028 301.968 365.827 300.89 365.727C304.535 366.162 308.209 366.454 311.885 366.377C313.463 366.345 315.042 366.314 316.614 366.183C317.117 366.142 319.465 365.768 319.703 365.768C321.205 365.417 322.685 364.974 324.15 364.466V335.9H269.957V347.74C270.113 347.99 270.153 348.083 269.959 347.866Z" fill="#DADADA"/>
<path d="M358.711 260.023C358.711 309.734 331.105 350.031 297.055 350.031C263.001 350.031 235.399 309.732 235.399 260.023C235.399 210.313 263.001 179.158 297.055 179.158C331.105 179.158 358.711 210.313 358.711 260.023Z" fill="#F7C7AD"/>
<path d="M264.186 219.418C264.208 219.303 264.228 219.187 264.246 219.073C272.959 208.174 284.98 202.113 298.252 202.113C324.852 202.113 346.418 226.45 346.418 265.288C346.418 291.172 336.831 313.771 322.565 325.98C322.565 325.98 241.951 315.744 264.186 219.418Z" fill="url(#paint0_linear_12_4)"/>
<path d="M287.452 330.235C266.445 316.133 254.995 292.202 252.086 266.445C249.352 242.254 255.137 215.487 269.547 196.359C274.55 189.727 280.944 184.101 288.039 179.92C258.263 184.924 235.399 214.786 235.399 260.025C235.399 309.736 263.001 350.033 297.055 350.033C306.944 350.033 316.289 346.626 324.573 340.585C311.676 341.044 298.743 337.817 287.452 330.235Z" fill="#EDEDED"/>
<path d="M267.921 368.022C262.168 371.359 247.905 378.172 223.523 381.104C223.523 381.104 166.719 383.369 168.312 493.051C168.312 493.051 211.054 513.585 297.054 513.41C383.048 513.585 425.796 493.051 425.796 493.051C427.389 383.369 370.585 381.104 370.585 381.104C346.194 378.172 331.934 371.356 326.181 368.022C326.181 368.022 356.467 439.905 297.054 504.597C297.054 504.597 239.62 441.572 267.921 368.022Z" fill="#347C17"/>
<path d="M249.807 420.175C249.832 420.315 249.855 420.459 249.882 420.599C250.095 421.723 250.322 422.838 250.555 423.955C250.712 423.885 250.864 423.808 251.02 423.741C250.601 422.571 250.197 421.382 249.807 420.175Z" fill="#347C17"/>
<path d="M369.735 458.064C376 439.612 380.576 418.679 377.519 399.039C377.111 396.426 376.488 393.815 375.662 391.275C387.854 394.542 419.718 410.417 418.611 486.952C418.611 486.952 393.33 499.099 342.525 503.183C355.924 491.613 363.843 475.409 369.735 458.064Z" fill="url(#paint1_linear_12_4)"/>
<path d="M222.893 459.476C216.624 441.023 212.049 420.087 215.112 400.451C215.52 397.834 216.14 395.226 216.966 392.684C204.774 395.953 172.907 411.825 174.02 488.363C174.02 488.363 199.295 500.507 250.103 504.595C236.704 493.021 228.785 476.821 222.893 459.476Z" fill="url(#paint2_linear_12_4)"/>
<path d="M370.586 381.104C346.195 378.172 331.935 371.356 326.181 368.022C326.181 368.022 330.404 402.006 297.055 504.597C297.055 504.597 268.042 417.714 267.922 368.022C262.168 371.359 247.906 378.172 223.524 381.104C223.524 381.104 221.594 402.006 233.985 430.559C233.985 430.559 242.589 425.623 247.226 427.034L233.836 437.506C233.836 437.506 254.84 474.551 285.629 513.41H311.446C311.446 513.41 346.42 461.208 363.342 429.855C363.342 429.855 359.229 424.905 346.54 420.688C346.54 420.688 354.323 417.868 363.342 419.279C363.342 419.279 373.203 402.006 370.586 381.104Z" fill="#347C17"/>
<path d="M297.054 504.595C282.588 460.876 281.905 451.884 281.905 451.884L287.665 420.176L304.182 420.622L312.469 452.591C312.469 452.591 301.163 494.279 297.054 504.595Z" fill="#BE1622"/>
<path d="M283.125 402.004H309.568C309.568 402.004 310.733 417.056 300.527 423.954H290.781C290.781 423.954 280.118 413.47 283.125 402.004Z" fill="#BE1622"/>
<path d="M309.568 402.004H304.857C305.237 403.054 305.457 404.179 305.457 405.36C305.457 410.556 301.384 414.894 296.504 414.894H296.348C291.465 414.894 287.396 410.556 287.396 405.36C287.396 404.179 287.615 403.054 287.995 402.004H283.125C280.118 413.47 290.78 423.954 290.78 423.954H300.525C310.733 417.055 309.568 402.004 309.568 402.004Z" fill="#DADADA"/>
<path d="M297.573 198.288C297.573 198.288 351.891 163.869 357.156 280.157C357.156 280.157 376.163 223.327 342.525 179.919C342.525 179.919 307.252 139.64 251.913 175.88C251.913 175.88 240.43 183.293 230.567 179.919C230.567 179.919 235.641 189.721 243.331 191.698C243.331 191.698 234.166 198.943 223.415 196.638C223.415 196.638 228.434 210.466 235.397 212.284C235.397 212.284 221.473 238.189 236.946 280.157C236.946 280.157 236.518 168.634 297.573 198.288Z" fill="#EA640C"/>
<path d="M355.236 217.266C355.236 217.266 355.047 216.696 354.695 215.631C354.337 214.57 353.853 212.984 353.091 211.049C352.402 209.089 351.387 206.78 350.237 204.141C349.6 202.855 348.924 201.487 348.211 200.045C347.408 198.658 346.656 197.146 345.738 195.658C344.785 194.195 343.893 192.603 342.757 191.117C342.215 190.356 341.665 189.583 341.105 188.796C340.501 188.051 339.889 187.294 339.268 186.526L338.331 185.37L337.308 184.274C336.617 183.544 335.94 182.781 335.22 182.058C333.703 180.693 332.249 179.182 330.559 177.931C328.961 176.546 327.144 175.449 325.373 174.239C323.492 173.234 321.641 172.106 319.632 171.307C317.686 170.345 315.582 169.782 313.516 169.106L310.333 168.397L309.536 168.217L308.766 168.118L307.084 167.901C304.799 167.502 302.718 167.54 300.554 167.378C298.395 167.509 296.199 167.398 294.123 167.829C293.092 168.018 291.987 168.067 291.027 168.364C289.953 168.632 288.884 168.897 287.822 169.16C286.761 169.424 285.704 169.686 284.657 169.947C283.641 170.257 282.665 170.613 281.677 170.938C277.71 172.137 274.007 173.848 270.481 175.411C267.109 177.309 263.877 178.981 260.943 180.88C257.99 182.706 255.119 184.204 252.429 185.146C249.749 186.123 247.213 186.386 245.191 186.162C243.143 185.992 241.686 185.197 240.737 184.71C239.835 184.106 239.354 183.784 239.354 183.784C239.354 183.784 239.864 184.039 240.821 184.516C241.81 184.882 243.291 185.414 245.228 185.375C247.151 185.373 249.465 184.862 251.931 183.727C254.401 182.598 257.022 180.926 259.825 178.944C262.569 176.878 265.827 174.877 269.25 172.764C272.815 170.961 276.558 168.972 280.733 167.603C281.76 167.229 282.798 166.823 283.841 166.47C284.882 166.178 285.929 165.884 286.984 165.586C288.039 165.289 289.099 164.992 290.166 164.692C291.33 164.327 292.46 164.269 293.618 164.046C295.926 163.558 298.245 163.643 300.577 163.486C302.906 163.622 305.363 163.602 307.55 163.978L309.23 164.211L310.141 164.342L311.002 164.541L314.432 165.345C316.66 166.091 318.92 166.735 321.014 167.785C323.179 168.662 325.146 169.922 327.126 171.075C328.994 172.423 330.898 173.664 332.559 175.184C334.31 176.58 335.831 178.197 337.348 179.732C338.075 180.534 338.751 181.37 339.44 182.172L340.458 183.376C340.769 183.797 341.077 184.217 341.384 184.633C341.996 185.466 342.599 186.286 343.191 187.096C343.729 187.945 344.261 188.78 344.782 189.603C345.859 191.221 346.681 192.931 347.562 194.502C348.403 196.101 349.1 197.695 349.801 199.181C350.412 200.714 350.988 202.166 351.531 203.531C352.505 206.308 353.282 208.748 353.791 210.805C354.386 212.832 354.644 214.467 354.889 215.567C355.115 216.678 355.236 217.266 355.236 217.266Z" fill="url(#paint3_linear_12_4)"/>
<path d="M348 220.642C348 220.642 347.836 220.129 347.527 219.17C347.213 218.217 346.791 216.789 346.138 215.044C345.546 213.273 344.684 211.181 343.674 208.802C343.119 207.639 342.525 206.403 341.903 205.098C341.225 203.832 340.51 202.501 339.765 201.112C338.149 198.424 336.361 195.536 334.143 192.775C331.99 189.956 329.414 187.278 326.553 184.813C323.722 182.293 320.414 180.252 316.93 178.568C316.041 178.19 315.187 177.698 314.262 177.404L311.502 176.455C310.571 176.176 309.609 176.001 308.663 175.766C308.214 175.668 307.66 175.514 307.294 175.464L305.785 175.263C303.739 174.899 301.841 174.851 299.921 174.737C298.959 174.703 297.984 174.794 297.02 174.812L295.574 174.865L294.163 175.08C293.246 175.242 292.241 175.34 291.407 175.541C290.446 175.789 289.49 176.037 288.538 176.282C287.587 176.527 286.643 176.772 285.704 177.014C284.773 177.265 283.919 177.623 283.033 177.917C279.487 179.031 276.189 180.597 273.038 182.031C270.041 183.789 267.161 185.316 264.561 187.07C261.94 188.761 259.387 190.15 256.982 191.024C254.592 191.932 252.321 192.213 250.503 192.023C248.662 191.89 247.361 191.143 246.515 190.699C245.714 190.144 245.287 189.848 245.287 189.848C245.287 189.848 245.741 190.085 246.593 190.526C247.476 190.864 248.8 191.356 250.534 191.329C252.256 191.333 254.337 190.87 256.524 189.786C258.721 188.728 261.035 187.165 263.521 185.342C265.949 183.44 268.859 181.609 271.897 179.658C273.495 178.836 275.139 177.994 276.816 177.133L278.087 176.488L279.429 175.967C280.331 175.619 281.242 175.268 282.16 174.914C283.079 174.579 284.008 174.169 284.94 173.886C285.871 173.614 286.808 173.341 287.753 173.065C288.696 172.79 289.645 172.513 290.599 172.235C291.689 171.956 292.672 171.86 293.723 171.665L295.279 171.417L296.839 171.34C297.883 171.306 298.921 171.201 299.978 171.229C302.092 171.326 304.251 171.388 306.216 171.727L307.722 171.943C308.358 172.043 308.784 172.185 309.326 172.304C310.35 172.565 311.388 172.771 312.396 173.083C313.392 173.437 314.388 173.79 315.378 174.141C316.376 174.474 317.298 175.005 318.255 175.428C322.021 177.264 325.475 179.649 328.422 182.396C329.193 183.041 329.906 183.744 330.581 184.47C331.262 185.191 331.967 185.873 332.591 186.62C333.818 188.133 335.062 189.572 336.091 191.122C338.293 194.107 339.952 197.23 341.43 200.111C342.116 201.58 342.764 202.996 343.344 204.355C343.861 205.741 344.353 207.054 344.815 208.291C345.629 210.802 346.311 212.994 346.754 214.841C347.28 216.662 347.483 218.135 347.699 219.123C347.895 220.113 348 220.642 348 220.642Z" fill="url(#paint4_linear_12_4)"/>
<path d="M232.55 199.013C233.166 200.363 234.009 201.565 234.974 202.579C235.463 203.084 235.997 203.522 236.532 203.936C237.095 204.317 237.665 204.665 238.274 204.923C238.562 205.086 238.889 205.153 239.196 205.263C239.505 205.365 239.807 205.476 240.133 205.519L241.083 205.7L242.054 205.749C242.692 205.828 243.354 205.674 243.994 205.654C244.316 205.622 244.639 205.529 244.961 205.478L245.924 205.298L252.394 204.079L246.665 207.786C245.929 208.261 245.001 209.192 244.308 210.098C243.571 211.018 242.922 212.046 242.313 213.095C241.747 214.184 241.178 215.265 240.757 216.449C240.263 217.583 239.896 218.789 239.519 219.99C239.093 221.169 238.864 222.431 238.57 223.666C238.242 224.891 238.075 226.161 237.869 227.429C237.67 228.693 237.406 229.947 237.325 231.242L236.958 235.098C236.865 236.386 236.829 237.688 236.76 238.984C236.719 240.284 236.589 241.579 236.639 242.887C236.688 245.494 236.538 248.115 236.701 250.733L236.831 254.672C236.888 255.985 236.875 257.308 236.99 258.619C237.178 261.247 237.299 263.892 237.382 266.556C236.753 263.99 236.162 261.405 235.635 258.802C235.074 256.205 234.816 253.555 234.404 250.921C234.2 249.603 234.103 248.272 234.012 246.939L233.727 242.936C233.612 241.604 233.681 240.257 233.66 238.914C233.672 237.572 233.628 236.226 233.69 234.879L234.009 230.842C234.075 229.494 234.328 228.154 234.519 226.811C234.701 225.467 234.943 224.131 235.301 222.813C235.636 221.492 235.905 220.158 236.388 218.869C236.814 217.57 237.233 216.266 237.855 215.035C238.381 213.768 239.074 212.572 239.774 211.387C240.525 210.232 241.306 209.084 242.275 208.086C243.258 207.061 244.181 206.162 245.642 205.395L246.383 207.882C245.63 207.949 244.888 208.063 244.136 208.078C243.374 208.018 242.624 208.083 241.87 207.908L240.749 207.706L239.654 207.356C239.286 207.255 238.938 207.09 238.598 206.91C238.257 206.729 237.903 206.589 237.593 206.35C236.938 205.945 236.349 205.45 235.788 204.931C235.248 204.386 234.761 203.796 234.333 203.162C233.917 202.522 233.536 201.866 233.244 201.165C232.947 200.466 232.709 199.744 232.55 199.013Z" fill="url(#paint5_linear_12_4)"/>
<path d="M267.922 368.022C267.922 368.022 243.243 377.499 255.17 410.112C255.17 410.112 257.952 375.543 297.397 413.991C297.397 413.991 300.027 384.905 284.965 378.736C284.965 378.736 267.922 376 267.922 368.022Z" fill="#DEDEDE"/>
<path d="M326.75 368.022C326.75 368.022 348.958 377.004 336.604 406.234C336.604 406.234 324.358 375.917 297.396 413.991C297.396 413.991 293.572 381.995 309.705 378.736C309.705 378.736 326.75 376 326.75 368.022Z" fill="#DEDEDE"/>
<path d="M402.336 261.349C402.336 264.461 399.952 266.984 397.014 266.984C394.075 266.984 391.691 264.461 391.691 261.349C391.691 258.236 394.075 255.713 397.014 255.713C399.952 255.713 402.336 258.236 402.336 261.349Z" fill="#00818D"/>
<path d="M354.667 245.141C354.667 237.183 360.756 230.733 368.267 230.733C375.778 230.733 381.871 237.183 381.871 245.141V277.561C381.871 285.519 375.778 291.971 368.267 291.971C360.756 291.971 354.667 285.519 354.667 277.561V245.141Z" fill="#464F5B"/>
<path d="M371.055 245.912C376.937 253.653 377.736 262.641 376.063 272.146C374.631 280.288 368.933 288.511 360.957 289.695C363.069 291.127 365.573 291.968 368.269 291.968C375.78 291.968 381.872 285.516 381.872 277.558V245.138C381.872 237.18 375.78 230.73 368.269 230.73C362.396 230.73 357.409 234.679 355.504 240.204C361.253 239.453 367.24 240.888 371.055 245.912Z" fill="#C6C6C6"/>
<path d="M359.484 245.141C359.484 244.311 360.116 243.642 360.901 243.642C361.686 243.642 362.318 244.311 362.318 245.141V281.761C362.318 282.591 361.686 283.264 360.901 283.264C360.116 283.264 359.484 282.591 359.484 281.761V245.141Z" fill="url(#paint6_linear_12_4)"/>
<path d="M380.035 239.271V283.429C389.173 280.746 395.879 271.883 395.879 261.349C395.879 250.817 389.173 241.955 380.035 239.271Z" fill="#347C17"/>
<path d="M389.446 269.792C382.518 265.059 380.745 258.377 380.035 250.342V283.432C385.945 281.696 390.82 277.371 393.543 271.688C392.105 271.275 390.719 270.659 389.446 269.792Z" fill="#DADADA"/>
<path d="M386.789 273.357C386.789 273.357 394.612 349.051 319.81 346.897" stroke="#2C343F" stroke-width="3.3174" stroke-miterlimit="10" stroke-linecap="round" stroke-linejoin="round"/>
<path d="M322.509 347.199C322.509 350.848 319.718 353.805 316.277 353.805H307.909C304.468 353.805 301.674 350.848 301.674 347.199C301.674 343.554 304.468 340.597 307.909 340.597H316.277C319.718 340.597 322.509 343.554 322.509 347.199Z" fill="#232A33"/>
<path d="M188.61 261.349C188.61 264.461 190.991 266.984 193.929 266.984C196.87 266.984 199.255 264.461 199.255 261.349C199.255 258.236 196.87 255.713 193.929 255.713C190.991 255.713 188.61 258.236 188.61 261.349Z" fill="#00818D"/>
<path d="M236.276 245.141C236.276 237.183 230.189 230.733 222.675 230.733C215.168 230.733 209.075 237.183 209.075 245.141V277.561C209.075 285.519 215.168 291.971 222.675 291.971C230.189 291.971 236.276 285.519 236.276 277.561V245.141Z" fill="#464F5B"/>
<path d="M219.886 245.912C214.004 253.653 213.205 262.641 214.878 272.146C216.313 280.288 222.012 288.511 229.987 289.695C227.872 291.127 225.365 291.968 222.674 291.968C215.166 291.968 209.074 285.516 209.074 277.558V245.138C209.074 237.18 215.166 230.73 222.674 230.73C228.55 230.73 233.534 234.679 235.442 240.204C229.693 239.453 223.703 240.888 219.886 245.912Z" fill="#C6C6C6"/>
<path d="M231.459 245.141C231.459 244.311 230.827 243.642 230.045 243.642C229.26 243.642 228.625 244.311 228.625 245.141V281.761C228.625 282.591 229.26 283.264 230.045 283.264C230.827 283.264 231.459 282.591 231.459 281.761V245.141Z" fill="url(#paint7_linear_12_4)"/>
<path d="M210.908 239.271V283.429C201.77 280.746 195.061 271.883 195.061 261.349C195.061 250.817 201.77 241.955 210.908 239.271Z" fill="#347C17"/>
<path d="M201.494 269.792C208.427 265.059 210.198 258.377 210.908 250.342V283.432C205.001 281.696 200.12 277.371 197.399 271.688C198.844 271.275 200.224 270.659 201.494 269.792Z" fill="#DADADA"/>
<path d="M297.055 599.999C397.15 599.999 478.294 589.046 478.294 575.534C478.294 562.022 397.15 551.068 297.055 551.068C196.96 551.068 115.816 562.022 115.816 575.534C115.816 589.046 196.96 599.999 297.055 599.999Z" fill="#C6C6C6"/>
<path d="M429.513 568.3C429.513 573.47 424.124 577.664 417.475 577.664H174.539C167.89 577.664 162.502 573.47 162.502 568.3L151.783 439.54C151.783 434.366 157.177 430.176 163.823 430.176H432.796C439.442 430.176 444.831 434.366 444.831 439.54L429.513 568.3Z" fill="#347C17"/>
<path d="M419.456 561.18C419.456 565.709 414.73 569.383 408.905 569.383H181.167C175.344 569.383 170.618 565.709 170.618 561.18L161.229 448.349C161.229 443.818 165.952 440.146 171.777 440.146H422.332C428.154 440.146 432.877 443.818 432.877 448.349L419.456 561.18Z" fill="url(#paint8_linear_12_4)"/>
<path d="M271.237 60.5209V56.7533C271.237 56.7533 271.076 53.8873 268.531 52.166C268.531 52.166 260.799 47.3924 260.511 29.3827C260.511 29.3827 259.934 4.35059 229.676 4.35059H215.579" stroke="#2C343F" stroke-width="1.4057" stroke-miterlimit="10" stroke-linecap="round" stroke-linejoin="round"/>
<path d="M273.072 61.896C273.072 63.4785 271.86 64.7605 270.365 64.7605C268.87 64.7605 267.658 63.4785 267.658 61.896C267.658 60.3103 268.87 59.0283 270.365 59.0283C271.86 59.0283 273.072 60.3103 273.072 61.896Z" fill="#8F2015"/>
<path d="M248.833 53.6522C248.833 49.6054 251.93 46.3262 255.749 46.3262C259.569 46.3262 262.665 49.6071 262.665 53.6522V70.1383C262.665 74.1851 259.569 77.4644 255.749 77.4644C251.93 77.4644 248.833 74.1835 248.833 70.1383V53.6522Z" fill="#464F5B"/>
<path d="M257.166 54.0442C260.158 57.9799 260.563 62.551 259.712 67.3849C258.984 71.5248 256.085 75.7072 252.031 76.3065C253.106 77.0349 254.379 77.4644 255.748 77.4644C259.568 77.4644 262.664 74.1835 262.664 70.1383V53.6522C262.664 49.6054 259.568 46.3262 255.748 46.3262C252.762 46.3262 250.224 48.3332 249.258 51.1438C252.181 50.7584 255.227 51.4916 257.166 54.0442Z" fill="#C6C6C6"/>
<path d="M251.282 53.652C251.282 53.229 251.604 52.8877 252.003 52.8877C252.4 52.8877 252.724 53.229 252.724 53.652V72.2725C252.724 72.6939 252.402 73.0352 252.003 73.0352C251.604 73.0352 251.282 72.6939 251.282 72.2725V53.652Z" fill="url(#paint9_linear_12_4)"/>
<path d="M261.733 50.668V73.1214C266.378 71.7561 269.79 67.2471 269.79 61.8955C269.79 56.5389 266.378 52.03 261.733 50.668Z" fill="#347C17"/>
<path d="M266.517 66.1866C262.993 63.7794 262.093 60.3826 261.731 56.2949V73.1223C264.734 72.2405 267.215 70.0391 268.598 67.1501C267.868 66.9394 267.165 66.6275 266.517 66.1866Z" fill="#DADADA"/>
<path d="M265.167 68C265.167 68 269.143 106.489 231.11 105.395" stroke="#2C343F" stroke-width="1.6868" stroke-miterlimit="10" stroke-linecap="round" stroke-linejoin="round"/>
<path d="M232.482 105.547C232.482 107.402 231.064 108.905 229.313 108.905H225.059C223.308 108.905 221.889 107.402 221.889 105.547C221.889 103.692 223.308 102.189 225.059 102.189H229.313C231.062 102.191 232.482 103.692 232.482 105.547Z" fill="#232A33"/>
<path d="M175.594 60.5209V56.7533C175.594 56.7533 175.755 53.8873 178.3 52.166C178.3 52.166 186.032 47.3924 186.322 29.3827C186.322 29.3827 186.898 4.35059 217.157 4.35059H231.252" stroke="#2C343F" stroke-width="1.4057" stroke-miterlimit="10" stroke-linecap="round" stroke-linejoin="round"/>
<path d="M173.759 61.896C173.759 63.4785 174.97 64.7605 176.465 64.7605C177.96 64.7605 179.172 63.4785 179.172 61.896C179.172 60.3103 177.959 59.0283 176.465 59.0283C174.97 59.0283 173.759 60.3103 173.759 61.896Z" fill="#8F2015"/>
<path d="M197.998 53.6522C197.998 49.6054 194.9 46.3262 191.082 46.3262C187.262 46.3262 184.164 49.6071 184.164 53.6522V70.1383C184.164 74.1851 187.262 77.4644 191.082 77.4644C194.902 77.4644 197.998 74.1835 197.998 70.1383V53.6522Z" fill="#464F5B"/>
<path d="M189.663 54.0442C186.673 57.9799 186.268 62.551 187.118 67.3849C187.848 71.5248 190.746 75.7072 194.8 76.3065C193.725 77.0349 192.453 77.4644 191.082 77.4644C187.262 77.4644 184.164 74.1835 184.164 70.1383V53.6522C184.164 49.6054 187.262 46.3262 191.082 46.3262C194.067 46.3262 196.604 48.3332 197.573 51.1438C194.649 50.7584 191.603 51.4916 189.663 54.0442Z" fill="#C6C6C6"/>
<path d="M195.549 53.652C195.549 53.229 195.225 52.8877 194.828 52.8877C194.429 52.8877 194.107 53.229 194.107 53.652V72.2725C194.107 72.6939 194.431 73.0352 194.828 73.0352C195.225 73.0352 195.549 72.6939 195.549 72.2725V53.652Z" fill="url(#paint10_linear_12_4)"/>
<path d="M185.098 50.668V73.1214C180.45 71.7561 177.042 67.2471 177.042 61.8955C177.042 56.5389 180.452 52.03 185.098 50.668Z" fill="#347C17"/>
<path d="M180.312 66.1866C183.836 63.7794 184.738 60.3826 185.1 56.2949V73.1223C182.094 72.2405 179.615 70.0391 178.231 67.1501C178.963 66.9394 179.665 66.6275 180.312 66.1866Z" fill="#DADADA"/>
<path d="M243.408 4.65759C243.408 7.22971 241.45 9.31517 239.035 9.31517H207.794C205.378 9.31517 203.42 7.23134 203.42 4.65759C203.42 2.08709 205.378 0 207.794 0H239.035C241.45 0 243.408 2.08709 243.408 4.65759Z" fill="#347C17"/>
<path d="M203.44 5.01562C203.612 7.42117 205.495 9.31556 207.795 9.31556H239.036C241.338 9.31556 243.22 7.42117 243.391 5.01562H203.44Z" fill="#C6C6C6"/>
<path d="M466.587 74.4522C466.587 74.5077 464.233 77.1566 465.094 77.3395C465.486 77.4244 466.762 72.5153 467.299 72.5986C467.731 72.6656 467.618 77.7592 468.127 77.8164C468.575 77.8654 469.458 72.8599 469.955 72.8959C470.41 72.9285 470.651 78.0189 471.143 78.0336C471.605 78.0499 472.144 72.9857 472.632 72.9824C473.097 72.9824 473.684 78.0385 474.169 78.0156C474.636 77.9944 474.816 72.904 475.296 72.8632C475.764 72.8224 476.728 77.8098 477.206 77.7461C477.674 77.6841 477.446 72.597 477.92 72.5104C478.386 72.4239 479.777 77.2987 480.244 77.186C480.707 77.0766 480.007 72.0385 480.467 71.9013C480.924 71.7641 482.793 76.4527 483.245 76.2894C483.693 76.1245 482.456 71.2056 482.896 71.0113C483.334 70.8169 485.74 75.2181 486.168 74.9927C486.593 74.7674 484.74 70.0722 485.153 69.8142C485.561 69.5578 488.536 73.5442 488.927 73.2519C489.315 72.9628 486.812 68.6253 487.182 68.3003C487.545 67.9802 491.083 71.4048 491.426 71.0488C491.762 70.6977 488.622 66.8616 488.937 66.4745C489.244 66.0956 493.268 68.8441 493.552 68.4261C493.826 68.0243 490.131 64.7941 490.382 64.3548C490.624 63.9302 495.013 65.9503 495.232 65.4881C495.444 65.0456 491.319 62.4669 491.506 61.9884C491.685 61.5311 496.307 62.8376 496.462 62.3461C496.611 61.8757 492.191 59.9291 492.317 59.4277C492.438 58.9492 497.18 59.6155 497.278 59.106C497.372 58.6177 492.783 57.1463 492.855 56.6302C493.013 55.719 497.678 56.8278 497.853 55.6732C497.931 55.1539 493.309 53.7984 493.397 53.1011C493.467 52.541 498.264 52.5361 498.33 51.8796C498.39 51.2998 493.707 50.2024 493.757 49.5589C493.803 48.9677 498.592 48.7065 498.627 48.0695C498.66 47.4718 493.929 46.6341 493.947 46.0004C493.964 45.3978 498.733 44.8572 498.735 44.2285C498.735 43.621 493.969 43.0755 493.95 42.4517C493.933 41.8409 498.661 40.9884 498.624 40.3662C498.588 39.7538 493.797 39.5562 493.737 38.9373C493.679 38.3249 498.331 37.087 498.247 36.4746C498.164 35.8622 493.375 36.1006 493.265 35.4931C493.155 34.8839 497.675 33.1823 497.536 32.5829C497.395 31.9803 492.658 32.7658 492.484 32.1795C492.308 31.5867 496.597 29.3037 496.384 28.7321C496.169 28.154 491.587 29.6433 491.331 29.0913C491.072 28.5328 494.958 25.5443 494.656 25.02C494.351 24.4909 490.106 26.8491 489.755 26.3608C489.401 25.8693 492.619 22.0935 492.214 21.6477C491.813 21.2084 488.185 24.5317 487.729 24.1414C487.281 23.7593 489.545 19.265 489.043 18.9368C488.557 18.6199 485.818 22.8007 485.28 22.541C484.765 22.2928 485.93 17.3478 485.366 17.1567C484.828 16.9738 483.066 21.7163 482.48 21.5889C481.928 21.4681 482.091 16.3695 481.494 16.3026C480.936 16.2389 480.045 21.2525 479.447 21.2362C478.883 21.2215 478.246 16.1621 477.647 16.1915C477.082 16.2193 476.875 21.3211 476.277 21.3913" stroke="#347C17" stroke-width="0.7823" stroke-miterlimit="10"/>
<path d="M387.062 21.4481L387.062 21.4479L387.062 21.4478L387.081 21.4285L387.097 21.4069C394.963 11.2333 406.054 6.24612 415.215 3.80491C419.792 2.58517 423.875 2.00408 426.814 1.72807C428.283 1.5901 429.464 1.52845 430.277 1.50127C430.583 1.49103 430.837 1.48569 431.034 1.48299V12.6405C423.006 12.2053 417.582 12.4646 413.969 13.1151C410.305 13.7748 408.382 14.8577 407.567 16.1571C406.723 17.5021 407.167 18.8917 407.718 19.8448C407.998 20.3292 408.322 20.7337 408.574 21.0154C408.7 21.1571 408.81 21.2695 408.889 21.3475C408.929 21.3865 408.961 21.4171 408.984 21.4384L409.005 21.458L409.014 21.467C409.027 21.4815 409.048 21.5043 409.076 21.5352C409.131 21.597 409.214 21.6912 409.319 21.8171C409.528 22.069 409.826 22.4473 410.171 22.9456C410.861 23.9427 411.741 25.4177 412.487 27.32C413.952 31.0538 414.91 36.4427 412.91 43.1215H399.128H396.929H383.148C381.147 36.4427 382.105 31.0538 383.57 27.32C384.317 25.4177 385.196 23.9427 385.887 22.9456C386.232 22.4473 386.529 22.069 386.739 21.8171C386.844 21.6912 386.926 21.597 386.982 21.5352C387.01 21.5043 387.03 21.4815 387.044 21.467L387.059 21.4514L387.062 21.4482L387.062 21.4481Z" fill="#347C17" stroke="#347C17"/>
<path d="M411.507 37.4254L411.507 37.4253C412.352 37.1629 413.2 36.8447 414.032 36.4682C413.961 38.5079 413.626 40.7288 412.91 43.119H383.149C381.149 36.4419 382.106 31.0541 383.57 27.3206C384.131 25.8906 384.767 24.7019 385.342 23.7761C385.392 24.7996 385.696 25.8948 386.106 26.941C386.969 29.1389 388.354 31.2426 389.145 32.2442L389.145 32.2442C390.438 33.8812 391.748 35.1162 393.271 36.0588C394.794 37.001 396.509 37.6371 398.597 38.1037C402.842 39.0547 407.383 38.7048 411.507 37.4254Z" fill="#C6C6C6" stroke="#347C17"/>
<path d="M382.08 40.5271C382.08 40.4872 382.081 40.4475 382.083 40.4082H414.044C414.046 40.4476 414.046 40.4872 414.046 40.5271V42.5375C414.046 43.959 412.971 45.0571 411.713 45.0571H384.415C383.155 45.0571 382.08 43.9589 382.08 42.5375V40.5271Z" fill="#0A1017" stroke="#347C17"/>
<path d="M397.793 44.0482L397.792 44.0481C395.172 43.5596 392.058 42.9406 389.684 41.2745M397.793 44.0482L389.971 40.8652M397.793 44.0482C401.512 44.7365 405.022 44.6827 408.742 43.6952C410.483 43.2345 412.322 42.7329 414.011 41.8739M397.793 44.0482L414.011 41.8739M389.684 41.2745L389.971 40.8652M389.684 41.2745C389.684 41.2746 389.684 41.2747 389.685 41.2748L389.971 40.8652M389.684 41.2745C389.33 41.0268 388.963 40.7386 388.621 40.4082M389.971 40.8652C389.582 40.5925 389.183 40.274 388.827 39.9082M388.621 40.4082H388.827V39.9082M388.621 40.4082H382.048C382.046 40.4476 382.045 40.4872 382.045 40.5271V42.5375C382.045 43.9592 383.119 45.0571 384.379 45.0571H411.677C412.937 45.0571 414.011 43.9592 414.011 42.5375V41.8739M388.621 40.4082C388.57 40.3587 388.519 40.3082 388.469 40.2568L388.827 39.9082M388.827 39.9082H381.605L414.011 41.8739" fill="#C6C6C6" stroke="#347C17"/>
<path d="M413.811 39.0137C413.793 39.1446 413.774 39.2762 413.754 39.4083H382.304C382.284 39.2762 382.265 39.1447 382.247 39.0137H413.811Z" fill="white" stroke="#347C17"/>
<path d="M406.797 35.3805C406.706 30.6676 404.68 26.3111 402.7 23.1494H406.759C406.78 23.1722 406.803 23.1976 406.828 23.2254C406.965 23.3775 407.163 23.603 407.399 23.8927C407.871 24.4727 408.497 25.3071 409.109 26.3225C410.304 28.3058 411.414 30.9264 411.287 33.6683C411.242 33.6962 411.19 33.7279 411.131 33.7631C410.893 33.905 410.538 34.1017 410.081 34.3147C409.276 34.6896 408.156 35.1135 406.797 35.3805Z" fill="white" stroke="#347C17"/>
<path d="M477.481 21.4069L477.498 21.4285L477.517 21.4478L477.517 21.4479L477.517 21.4481L477.517 21.4482L477.52 21.4514L477.535 21.467C477.548 21.4815 477.569 21.5043 477.597 21.5352C477.653 21.597 477.735 21.6912 477.84 21.8171C478.049 22.069 478.347 22.4473 478.692 22.9456C479.383 23.9427 480.262 25.4177 481.008 27.32C482.474 31.0538 483.432 36.4427 481.431 43.1215H467.65H465.451H451.669C449.669 36.4427 450.626 31.0538 452.092 27.32C452.838 25.4177 453.717 23.9427 454.408 22.9456C454.753 22.4473 455.051 22.069 455.26 21.8171C455.365 21.6912 455.447 21.597 455.503 21.5352C455.531 21.5043 455.552 21.4815 455.565 21.467L455.58 21.4514L455.583 21.4482L455.583 21.4481L455.583 21.4482L455.589 21.4423L455.223 21.1011C455.589 21.4423 455.589 21.4419 455.589 21.4415L455.59 21.4406L455.593 21.438L455.6 21.4301C455.606 21.4236 455.614 21.4148 455.623 21.4036C455.643 21.3813 455.67 21.3498 455.704 21.3096C455.77 21.2294 455.86 21.1143 455.962 20.9696C456.164 20.6819 456.416 20.2687 456.605 19.7734C456.988 18.7744 457.126 17.396 456.044 16.1021C455 14.8529 452.886 13.7751 449.041 13.1145C445.261 12.4649 439.725 12.2052 431.691 12.6405V1.4826C431.905 1.48515 432.186 1.49051 432.528 1.5013C433.392 1.52851 434.647 1.59022 436.203 1.7283C439.317 2.00453 443.633 2.58601 448.443 3.80641C458.072 6.24965 469.621 11.239 477.481 21.4069Z" fill="#347C17" stroke="#347C17"/>
<path d="M453.071 37.4253L453.071 37.4254C457.196 38.7048 461.737 39.0547 465.982 38.1037C468.07 37.6371 469.785 37.001 471.308 36.0588C472.831 35.1162 474.14 33.8812 475.434 32.2444C476.226 31.2427 477.611 29.1389 478.473 26.9409C478.884 25.8951 479.187 24.8002 479.237 23.7769C479.812 24.7026 480.447 25.891 481.008 27.3206C482.473 31.0541 483.429 36.4419 481.43 43.119H451.669C450.953 40.7288 450.617 38.5079 450.547 36.4682C451.378 36.8447 452.226 37.1629 453.071 37.4253Z" fill="#C6C6C6" stroke="#347C17"/>
<path d="M450.535 40.4082H482.495C482.496 40.4476 482.497 40.4872 482.497 40.5271V42.5375C482.497 43.959 481.422 45.0571 480.163 45.0571H452.866C451.608 45.0571 450.532 43.959 450.532 42.5375V40.5271C450.532 40.4872 450.533 40.4476 450.535 40.4082Z" fill="#0A1017" stroke="#347C17"/>
<path d="M466.787 44.0481L466.786 44.0482C463.066 44.7365 459.557 44.6827 455.836 43.6953L466.787 44.0481ZM466.787 44.0481C469.408 43.5596 472.519 42.9405 474.895 41.2745M466.787 44.0481L474.895 41.2745M474.895 41.2745C475.249 41.0268 475.616 40.7386 475.958 40.4082M474.895 41.2745L475.958 40.4082M475.958 40.4082H482.53C482.532 40.4474 482.533 40.487 482.533 40.5271V42.5375C482.533 43.9592 481.459 45.0571 480.199 45.0571H452.9C451.641 45.0571 450.566 43.959 450.566 42.5375V41.8736C452.256 42.7328 454.094 43.2344 455.836 43.6952L475.958 40.4082Z" fill="#C6C6C6" stroke="#347C17"/>
<path d="M482.331 39.0137C482.313 39.1447 482.294 39.2762 482.274 39.4083H450.826C450.806 39.2761 450.786 39.1445 450.768 39.0137H482.331Z" fill="white" stroke="#347C17"/>
<path d="M457.818 23.1494H461.877C459.896 26.3113 457.871 30.6677 457.779 35.3805C456.419 35.1135 455.3 34.6896 454.495 34.3147C454.037 34.1017 453.682 33.905 453.444 33.7631C453.385 33.728 453.334 33.6962 453.289 33.6684C453.163 30.9265 454.274 28.3058 455.469 26.3225C456.081 25.3071 456.706 24.4727 457.179 23.8927C457.415 23.603 457.612 23.3775 457.749 23.2254C457.774 23.1976 457.797 23.1722 457.818 23.1494Z" fill="white" stroke="#347C17"/>
<path d="M468.003 94.3496C468.003 97.499 465.98 99.8528 463.705 99.8528H400.876C398.599 99.8528 396.577 97.4991 396.577 94.3496V87.1917C396.577 84.0423 398.601 81.6885 400.876 81.6885H463.705C465.98 81.6885 468.003 84.0423 468.003 87.1917V94.3496Z" fill="#0A1017" stroke="#347C17"/>
<path d="M458.325 96.901L458.325 96.901C461.705 96.0226 465.013 94.7772 468.004 92.966V94.3496C468.004 97.499 465.981 99.8528 463.706 99.8528H400.877C398.602 99.8528 396.578 97.499 396.578 94.3496V87.1917C396.578 84.0422 398.6 81.6885 400.877 81.6885H403.108C403.057 82.3286 403.041 82.9696 403.06 83.6044C403.192 87.9586 405.512 91.3032 408.593 93.7959C411.443 96.1039 415.109 97.2777 418.512 97.9082L418.512 97.9082C423.116 98.76 427.778 99.2883 432.443 99.518C441.116 99.9467 449.881 99.0927 458.325 96.901Z" fill="#C6C6C6" stroke="#347C17"/>
<path d="M459.543 35.0839V35.1283L459.551 35.1719L468.003 82.4183C467.98 84.8112 466.058 86.7335 463.705 86.7335H400.876C398.521 86.7335 396.6 84.8088 396.578 82.4166L404.742 34.8762L404.749 34.8342V34.7916C404.749 33.4468 405.355 32.2472 406.302 31.4473H457.602C458.768 32.2249 459.543 33.5613 459.543 35.0839Z" fill="#347C17" stroke="#347C17"/>
<path d="M418.613 52.1686L418.613 52.1686C414.107 58.5247 411.272 66.0883 409.321 73.5551L409.764 73.6708L409.321 73.5552C408.433 76.9567 407.75 80.4343 407.299 83.9403H403.987C401.895 83.9403 400.186 82.2324 400.165 80.1067L407.519 37.2828L407.526 37.2408V37.1982C407.526 36.0065 408.059 34.9442 408.893 34.2344H440.02C438.671 34.8923 437.353 35.5956 436.072 36.3281L436.072 36.3282C429.22 40.2509 423.202 45.6976 418.613 52.1686Z" fill="white" stroke="#347C17"/>
<path d="M459.543 35.0839V35.1283L459.551 35.1719L468.003 82.4183C467.98 84.8112 466.058 86.7335 463.705 86.7335H427.091C435.655 82.6868 443.159 76.4743 448.586 67.7502L448.586 67.7502C452.733 61.0827 455.466 53.2976 455.212 45.3043C455.06 40.4883 453.828 35.8848 452.173 31.4473H457.602C458.768 32.2249 459.543 33.5613 459.543 35.0839Z" fill="#C6C6C6" stroke="#347C17"/>
<path d="M434.115 69.9099C428.248 69.9099 423.545 64.8512 423.545 58.6853C423.545 52.5144 428.248 47.4608 434.115 47.4608C439.982 47.4608 444.685 52.5143 444.685 58.6852L434.115 69.9099ZM434.115 69.9099C439.984 69.9099 444.687 64.853 444.685 58.6853L434.115 69.9099ZM416.219 58.6853C416.219 48.1121 424.263 39.5947 434.115 39.5947C443.969 39.5947 452.01 48.1121 452.01 58.6853C452.01 69.2569 443.969 77.7743 434.115 77.7743C424.261 77.7743 416.219 69.2569 416.219 58.6853Z" fill="#B2B2B2" stroke="#347C17"/>
<path d="M419.95 62.4883L419.951 62.4883C420.969 62.487 421.848 63.3771 421.848 64.5408C421.848 65.7062 420.969 66.5966 419.95 66.5966C418.931 66.5966 418.052 65.7076 418.052 64.5408C418.052 63.3777 418.93 62.4883 419.95 62.4883Z" fill="#DADADA" stroke="#347C17"/>
<path d="M420.084 66.5915C420.04 66.5949 419.995 66.5966 419.95 66.5966C418.931 66.5966 418.052 65.7062 418.052 64.5408C418.052 63.5342 418.71 62.7326 419.548 62.5351C419.273 63.1946 419.185 63.9365 419.271 64.6386C419.356 65.341 419.622 66.0385 420.084 66.5915Z" fill="#DADADA" stroke="#347C17"/>
<path d="M414.394 57.6192C414.394 47.0461 422.436 38.5303 432.29 38.5303C442.144 38.5303 450.185 47.0461 450.185 57.6192C450.185 68.1924 442.144 76.7082 432.29 76.7082C422.436 76.7082 414.394 68.1924 414.394 57.6192ZM421.719 57.6209C421.719 63.7885 426.422 68.8454 432.29 68.8454C438.157 68.8454 442.86 63.7868 442.86 57.6209C442.86 51.4533 438.157 46.3963 432.29 46.3963C426.423 46.3963 421.719 51.4516 421.719 57.6209Z" fill="white" stroke="#347C17"/>
<path d="M447.924 54.5337C447.924 55.6988 447.043 56.5894 446.026 56.5894C445.006 56.5894 444.127 55.699 444.127 54.5337C444.127 53.3701 445.006 52.4795 446.026 52.4795C447.044 52.4795 447.924 53.3703 447.924 54.5337Z" fill="#DADADA" stroke="#347C17"/>
<path d="M445.718 53.8977V54.0039C445.718 54.9498 446.081 55.8217 446.667 56.4687C446.466 56.5477 446.25 56.5904 446.027 56.5904C445.008 56.5904 444.128 55.7 444.128 54.5346C444.128 53.3786 444.994 52.4941 446.003 52.4806C445.821 52.9166 445.718 53.3961 445.718 53.8977Z" fill="#DADADA" stroke="#347C17"/>
<path d="M444.924 48.0379C444.924 49.2028 444.046 50.092 443.026 50.092C442.006 50.092 441.128 49.2028 441.128 48.0379C441.128 46.8748 442.006 45.9854 443.026 45.9854C444.046 45.9854 444.924 46.8748 444.924 48.0379Z" fill="#DADADA" stroke="#347C17"/>
<path d="M443.16 50.087C443.116 50.0903 443.071 50.092 443.026 50.092C442.006 50.092 441.128 49.2028 441.128 48.0379C441.128 47.0313 441.786 46.2298 442.624 46.0322C442.349 46.6921 442.261 47.4342 442.347 48.1361C442.433 48.8381 442.698 49.5349 443.16 50.087Z" fill="#DADADA" stroke="#347C17"/>
<path d="M432.83 42.9292C432.83 44.0925 431.949 44.9833 430.931 44.9833C429.912 44.9833 429.031 44.0923 429.031 42.9292C429.031 41.7646 429.911 40.875 430.931 40.875C431.95 40.875 432.83 41.7644 432.83 42.9292Z" fill="#DADADA" stroke="#347C17"/>
<path d="M431.065 44.9782C431.021 44.9816 430.976 44.9833 430.931 44.9833C429.912 44.9833 429.031 44.0923 429.031 42.9292C429.031 41.9213 429.691 41.1194 430.529 40.9218C430.254 41.5818 430.166 42.324 430.252 43.0261C430.338 43.7284 430.603 44.4255 431.065 44.9782Z" fill="#DADADA" stroke="#347C17"/>
<path d="M440.128 43.6723C440.128 44.8354 439.248 45.7265 438.228 45.7265C437.208 45.7265 436.329 44.8359 436.329 43.6723C436.329 42.509 437.21 41.6182 438.228 41.6182C439.248 41.6182 440.128 42.5092 440.128 43.6723Z" fill="#DADADA" stroke="#347C17"/>
<path d="M438.362 45.7215C438.318 45.7248 438.273 45.7265 438.229 45.7265C437.211 45.7265 436.33 44.8357 436.33 43.6723C436.33 42.6655 436.988 41.863 437.826 41.6651C437.551 42.3252 437.463 43.0675 437.549 43.7698C437.635 44.4719 437.9 45.1689 438.362 45.7215Z" fill="#DADADA" stroke="#347C17"/>
<path d="M424.748 43.4316L424.749 43.4316C425.766 43.4304 426.647 44.319 426.647 45.4858C426.647 46.6489 425.768 47.5383 424.748 47.5383C423.729 47.5383 422.85 46.6489 422.85 45.4858C422.85 44.3194 423.729 43.4316 424.748 43.4316Z" fill="#DADADA" stroke="#347C17"/>
<path d="M424.881 47.5334C424.838 47.5367 424.793 47.5383 424.748 47.5383C423.729 47.5383 422.85 46.6489 422.85 45.4858C422.85 44.4768 423.508 43.6763 424.345 43.4786C424.07 44.1382 423.982 44.8801 424.068 45.5819C424.154 46.284 424.419 46.9809 424.881 47.5334Z" fill="#DADADA" stroke="#347C17"/>
<path d="M419.95 48.54L419.951 48.54C420.969 48.5388 421.848 49.4286 421.848 50.5942C421.848 51.7592 420.97 52.6484 419.95 52.6484C418.931 52.6484 418.052 51.7592 418.052 50.5942C418.052 49.4292 418.931 48.54 419.95 48.54Z" fill="#DADADA" stroke="#347C17"/>
<path d="M420.084 52.6433C420.04 52.6467 419.995 52.6484 419.95 52.6484C418.931 52.6484 418.052 51.7592 418.052 50.5942C418.052 49.5857 418.71 48.7839 419.549 48.5867C419.273 49.2466 419.185 49.9892 419.271 50.6916C419.356 51.3938 419.622 52.0909 420.084 52.6433Z" fill="#DADADA" stroke="#347C17"/>
<path d="M418.119 55.5674L418.12 55.5674C419.139 55.5661 420.019 56.455 420.019 57.6215C420.019 58.7857 419.14 59.6741 418.119 59.6741C417.099 59.6741 416.221 58.7861 416.221 57.6215C416.221 56.4566 417.1 55.5674 418.119 55.5674Z" fill="#DADADA" stroke="#347C17"/>
<path d="M418.253 59.6681C418.209 59.6714 418.165 59.6731 418.12 59.6731C417.1 59.6731 416.222 58.7851 416.222 57.6206C416.222 56.6124 416.88 55.8107 417.718 55.6132C417.443 56.2736 417.354 57.0161 417.44 57.7185C417.526 58.42 417.791 59.1163 418.253 59.6681Z" fill="#DADADA" stroke="#347C17"/>
<path d="M419.95 62.4883L419.951 62.4883C420.969 62.487 421.848 63.3771 421.848 64.5408C421.848 65.7062 420.969 66.5966 419.95 66.5966C418.931 66.5966 418.052 65.7076 418.052 64.5408C418.052 63.3777 418.93 62.4883 419.95 62.4883Z" fill="#DADADA" stroke="#347C17"/>
<path d="M420.084 66.5915C420.04 66.5949 419.995 66.5966 419.95 66.5966C418.931 66.5966 418.052 65.7062 418.052 64.5408C418.052 63.5342 418.71 62.7326 419.548 62.5351C419.273 63.1946 419.185 63.9365 419.271 64.6386C419.356 65.341 419.622 66.0385 420.084 66.5915Z" fill="#DADADA" stroke="#347C17"/>
<path d="M426.008 69.6508C426.008 70.8135 425.128 71.7034 424.108 71.7034C423.088 71.7034 422.209 70.814 422.209 69.6508C422.209 68.4859 423.088 67.5967 424.108 67.5967C425.128 67.5967 426.008 68.4849 426.008 69.6508Z" fill="#DADADA" stroke="#347C17"/>
<path d="M424.242 71.6985C424.198 71.7017 424.153 71.7034 424.109 71.7034C423.089 71.7034 422.21 70.814 422.21 69.6508C422.21 68.6428 422.868 67.8413 423.706 67.6436C423.431 68.3033 423.343 69.0455 423.429 69.7475C423.515 70.4494 423.78 71.1462 424.242 71.6985Z" fill="#DADADA" stroke="#347C17"/>
<path d="M430.932 71.0576L430.932 71.0576C431.95 71.0564 432.83 71.945 432.83 73.1118C432.83 74.2747 431.95 75.1643 430.932 75.1643C429.911 75.1643 429.032 74.2745 429.032 73.1118C429.032 71.9458 429.911 71.0576 430.932 71.0576Z" fill="#DADADA" stroke="#347C17"/>
<path d="M431.065 75.1593C431.021 75.1626 430.977 75.1643 430.932 75.1643C429.911 75.1643 429.032 74.2745 429.032 73.1118C429.032 72.1028 429.691 71.3018 430.529 71.1044C430.254 71.7641 430.166 72.5061 430.252 73.2079C430.338 73.9099 430.603 74.6068 431.065 75.1593Z" fill="#DADADA" stroke="#347C17"/>
<path d="M448.532 72.7946L443.822 77.3861L440.309 68.2031L448.532 72.7946Z" fill="#B2B2B2" stroke="#347C17"/>
<path d="M441.571 71.5001C442.959 72.9628 444.794 74.0581 446.653 74.6269L443.824 77.3861L441.571 71.5001Z" fill="#B2B2B2" stroke="#347C17"/>
<path d="M442.774 26.1503L442.918 25.8975L442.483 25.6503C442.918 25.8975 442.918 25.8974 442.918 25.8972L442.918 25.8968L442.918 25.8959L442.92 25.8933L442.925 25.8847L442.941 25.8551C442.955 25.8298 442.974 25.7937 442.998 25.7477C443.045 25.6556 443.11 25.5235 443.185 25.3582C443.333 25.0284 443.52 24.5626 443.673 24.0179C443.922 23.1313 444.097 21.9802 443.818 20.8574H449.454C449.482 21.0632 449.516 21.3387 449.548 21.6676C449.622 22.4266 449.683 23.4641 449.634 24.5834C449.585 25.7052 449.427 26.8914 449.072 27.9555C448.736 28.9614 448.234 29.8311 447.508 30.4448H436.03H428.553H417.075C416.349 29.8311 415.846 28.9613 415.51 27.9554C415.155 26.8913 414.997 25.7051 414.948 24.5834C414.899 23.4641 414.96 22.4266 415.033 21.6676C415.065 21.3387 415.099 21.0632 415.128 20.8574H420.76C420.481 21.9797 420.656 23.1307 420.905 24.0173C421.058 24.5621 421.245 25.0279 421.394 25.3579C421.468 25.5232 421.533 25.6555 421.581 25.7475C421.605 25.7936 421.624 25.8297 421.637 25.855L421.654 25.8846L421.658 25.8931L421.66 25.8958L421.66 25.8967L421.661 25.8971C421.661 25.8972 421.661 25.8974 422.096 25.6503L421.661 25.8974L421.805 26.1503H422.096H428.551H436.029H442.483H442.774Z" fill="#347C17" stroke="#347C17"/>
<path d="M444.895 29.1552H445.066L445.202 29.0503C446.425 28.1021 446.977 26.3491 447.224 24.7089C447.436 23.3065 447.44 21.8806 447.385 20.8574H449.451C449.479 21.0632 449.514 21.3388 449.545 21.6679C449.619 22.4269 449.68 23.4646 449.631 24.584C449.582 25.7058 449.424 26.8921 449.069 27.9561C448.733 28.9619 448.23 29.8314 447.503 30.4448H436.026H428.549H417.071C416.344 29.8311 415.842 28.9613 415.506 27.9554C415.15 26.8913 414.992 25.7051 414.943 24.5834C414.895 23.4641 414.955 22.4266 415.029 21.6676C415.061 21.3387 415.095 21.0632 415.123 20.8574H417.189C417.135 21.8806 417.139 23.3065 417.35 24.7089C417.598 26.3492 418.15 28.1023 419.374 29.0505L419.51 29.1552H419.681H429.225H435.349H444.895Z" fill="#C6C6C6" stroke="#347C17"/>
<mask id="path-105-inside-1_12_4" fill="white">
<path d="M443.98 27.5981C443.98 27.8349 443.802 28.0243 443.581 28.0243H420.998C420.778 28.0243 420.599 27.8349 420.599 27.5981C420.599 27.3629 420.778 27.1719 420.998 27.1719H443.581C443.8 27.1719 443.98 27.3629 443.98 27.5981Z"/>
</mask>
<path d="M443.98 27.5981C443.98 27.8349 443.802 28.0243 443.581 28.0243H420.998C420.778 28.0243 420.599 27.8349 420.599 27.5981C420.599 27.3629 420.778 27.1719 420.998 27.1719H443.581C443.8 27.1719 443.98 27.3629 443.98 27.5981Z" fill="white"/>
<path d="M442.98 27.5981C442.98 27.3455 443.189 27.0243 443.581 27.0243V29.0243C444.415 29.0243 444.98 28.3243 444.98 27.5981H442.98ZM443.581 27.0243H420.998V29.0243H443.581V27.0243ZM420.998 27.0243C421.389 27.0243 421.599 27.343 421.599 27.5981H419.599C419.599 28.3269 420.168 29.0243 420.998 29.0243V27.0243ZM421.599 27.5981C421.599 27.8523 421.391 28.1719 420.998 28.1719V26.1719C420.165 26.1719 419.599 26.8736 419.599 27.5981H421.599ZM420.998 28.1719H443.581V26.1719H420.998V28.1719ZM443.581 28.1719C443.187 28.1719 442.98 27.8523 442.98 27.5981H444.98C444.98 26.8736 444.413 26.1719 443.581 26.1719V28.1719Z" fill="#347C17" mask="url(#path-105-inside-1_12_4)"/>
<path d="M554.323 167.716C572.335 173.995 585.346 196.266 585.346 217.545C585.346 244.042 565.178 265.519 540.299 265.519C516.245 265.519 496.597 245.441 495.318 220.166C495.274 221.116 495.251 222.073 495.251 223.037C495.251 253.84 518.701 278.814 547.626 278.814C576.552 278.814 600 253.84 600 223.037C600 194.646 580.084 171.219 554.323 167.716Z" fill="#347C17"/>
<path d="M554.323 167.716C576.265 171.901 592.922 195.307 592.922 219.879C592.922 247.478 571.913 269.853 545.996 269.853C533.77 269.853 522.638 264.874 514.287 256.715C503.396 248.497 496.082 235.257 495.318 220.164C495.274 221.115 495.251 222.072 495.251 223.035C495.251 253.839 518.701 278.812 547.626 278.812C576.552 278.812 600 253.839 600 223.035C600 194.646 580.084 171.219 554.323 167.716Z" fill="#C6C6C6"/>
<path d="M509.522 231.387L494.292 213.639L482.898 234.397L495.522 225.995L509.522 231.387Z" fill="#347C17"/>
<path d="M541.307 179.742V174.551C541.08 174.548 540.853 174.541 540.625 174.541C540.395 174.541 540.168 174.548 539.942 174.551V179.742H541.307Z" fill="#347C17"/>
<path d="M539.942 253.141V258.218C540.168 258.223 540.395 258.228 540.625 258.228C540.851 258.228 541.078 258.223 541.307 258.218V253.141H539.942Z" fill="#347C17"/>
<path d="M575.083 217.17H579.904C579.909 216.909 579.915 216.647 579.915 216.386C579.915 216.162 579.909 215.94 579.907 215.715H575.083V217.17Z" fill="#347C17"/>
<path d="M506.164 215.713H501.34C501.337 215.938 501.333 216.16 501.333 216.384C501.333 216.645 501.337 216.907 501.342 217.168H506.164V215.713Z" fill="#347C17"/>
<path d="M558.445 247.859L561 252.17C561.391 251.917 561.774 251.654 562.155 251.389L559.601 247.083L558.445 247.859Z" fill="#347C17"/>
<path d="M522.803 185.023L520.2 180.633C519.812 180.884 519.427 181.146 519.047 181.413L521.649 185.8L522.803 185.023Z" fill="#347C17"/>
<path d="M511.393 196.994L507.227 194.34C506.985 194.753 506.75 195.168 506.523 195.589L510.694 198.241L511.393 196.994Z" fill="#347C17"/>
<path d="M569.854 235.891L573.973 238.512C574.215 238.1 574.451 237.685 574.68 237.264L570.556 234.64L569.854 235.891Z" fill="#347C17"/>
<path d="M559.202 185.525L561.746 181.097C561.364 180.838 560.975 180.584 560.582 180.338L558.037 184.764L559.202 185.525Z" fill="#347C17"/>
<path d="M522.047 247.358L519.549 251.701C519.933 251.962 520.321 252.217 520.714 252.462L523.212 248.118L522.047 247.358Z" fill="#347C17"/>
<path d="M570.519 198.175L574.683 195.512C574.454 195.09 574.218 194.676 573.977 194.266L569.814 196.926L570.519 198.175Z" fill="#347C17"/>
<path d="M510.728 234.709L506.611 237.342C506.839 237.763 507.075 238.178 507.319 238.588L511.432 235.958L510.728 234.709Z" fill="#347C17"/>
<path d="M516.961 226.865C516.992 222.978 517.851 220.294 522.896 216.438C525.714 214.29 526.544 213.214 526.544 211.446C526.544 209.327 525.328 208.695 523.814 208.695C522.063 208.695 520.936 209.612 520.936 212.424H517.228C517.228 207.903 519.602 205.188 523.636 205.188C527.613 205.188 530.313 207.178 530.313 211.316C530.313 214.508 528.829 216.34 524.616 219.533C523.103 220.702 521.976 222.217 521.887 223.292H530.373V226.862H516.961V226.865Z" fill="black"/>
<path d="M538.261 226.865V222.283H530.606V218.713L537.786 205.885H542.118V219.093H544.343V222.284H542.118V226.867L538.261 226.865ZM538.351 211.699L534.317 219.092H538.351V211.699Z" fill="black"/>
<path d="M544.311 226.865L549.948 205.883H553.182L547.485 226.865H544.311Z" fill="black"/>
<path d="M555.998 226.865C556.443 220.831 558.757 214.605 562.911 209.518H553.3V205.883H567.095V209.044C562.674 214.257 560.271 220.577 559.975 226.865H555.998Z" fill="black"/>
<path d="M486.979 196.404C486.979 196.404 484.791 206.043 493.371 213.547L503.016 207.086L504.514 206.082L514.16 199.62C511.524 188.134 502.418 186.06 502.418 186.06C502.418 186.06 490.94 184.398 514.344 170.526L509.437 162.219C509.44 162.219 489.54 175.106 486.979 196.404Z" fill="#347C17"/>
<path d="M510.165 195.949C507.908 198.656 505.011 200.921 501.809 202.18C498.647 203.43 496.29 203.523 493.273 202.496C491.442 201.872 486.254 199.352 486.979 196.404C486.978 196.407 484.793 206.043 493.371 213.547L514.161 199.62C513.616 197.237 512.789 195.261 511.824 193.623C511.326 194.451 510.763 195.23 510.165 195.949Z" fill="#C6C6C6"/>
<path d="M491.101 211.534C491.155 211.689 491.222 211.839 491.308 211.983L492.118 213.354C492.789 214.491 494.199 214.831 495.266 214.117L513.873 201.653C514.94 200.938 515.261 199.439 514.589 198.302L513.779 196.93C513.694 196.785 513.595 196.653 513.488 196.535L491.101 211.534Z" fill="#8C1F14"/>
<path d="M503.641 206.601C501.646 207.473 499.355 208.43 497.164 208.379C496.788 208.373 496.39 208.339 495.999 208.25L491.076 211.549C491.13 211.703 491.199 211.855 491.285 211.997L492.094 213.369C492.766 214.504 494.174 214.846 495.241 214.131L513.848 201.667C514.915 200.952 515.234 199.455 514.564 198.316L513.957 197.289C513.153 198.855 511.973 200.186 510.815 201.468C508.722 203.79 506.403 205.397 503.641 206.601Z" fill="#C6C6C6"/>
<path d="M491.262 211.425L513.279 196.677C513.144 196.318 513.002 195.972 512.855 195.637L490.566 210.566C490.785 210.854 491.017 211.14 491.262 211.425Z" fill="white"/>
<path d="M501.423 188.203L497.884 190.573C500.701 191.822 504.292 194.014 506.327 197.597C508.403 195.71 509.24 193.713 509.24 193.713C507.138 189.454 501.423 188.203 501.423 188.203Z" fill="white"/>
<path d="M549.126 154.775C549.126 154.775 558.232 156.847 560.866 168.334L551.221 174.795L549.723 175.799L540.077 182.26C531.497 174.754 533.686 165.117 533.686 165.117C533.686 165.117 535.983 154.228 514.109 170.683L509.202 162.377C509.202 162.377 529.992 148.007 549.126 154.775Z" fill="#347C17"/>
<path d="M538.7 176.835C541.967 175.841 545.14 174.039 547.594 171.515C550.018 169.018 551.119 166.797 551.556 163.454C551.821 161.425 551.936 155.357 549.126 154.775C549.13 154.775 558.231 156.851 560.866 168.335L540.075 182.26C538.295 180.704 536.981 179.055 536.013 177.42C536.93 177.299 537.835 177.097 538.7 176.835Z" fill="#C6C6C6"/>
<path d="M560.147 165.282C560.254 165.4 560.351 165.53 560.437 165.676L561.245 167.046C561.917 168.183 561.596 169.683 560.529 170.399L541.922 182.863C540.854 183.578 539.445 183.236 538.775 182.098L537.965 180.728C537.879 180.583 537.811 180.432 537.757 180.279L560.147 165.282Z" fill="#8C1F14"/>
<path d="M550.544 175.186C552.145 173.649 553.949 171.864 554.855 169.738C555.011 169.375 555.154 168.975 555.249 168.562L560.171 165.267C560.279 165.384 560.375 165.515 560.461 165.659L561.271 167.03C561.943 168.165 561.621 169.668 560.555 170.383L541.948 182.847C540.88 183.562 539.473 183.221 538.801 182.083L538.195 181.055C539.87 180.962 541.509 180.404 543.095 179.85C545.964 178.846 548.328 177.316 550.544 175.186Z" fill="#C6C6C6"/>
<path d="M559.986 165.392L537.97 180.139C537.725 179.853 537.493 179.567 537.272 179.28L559.56 164.349C559.708 164.685 559.851 165.033 559.986 165.392Z" fill="white"/>
<path d="M535.93 165.085L539.469 162.716C539.305 165.961 539.607 170.36 541.756 173.863C539.261 175.041 537.209 174.979 537.209 174.979C534.513 171.116 535.93 165.085 535.93 165.085Z" fill="white"/>
<path d="M65.7383 249.941C65.7383 249.941 79.1393 252.123 88.294 237.934L78.2928 223.839L76.7409 221.647L66.7397 207.549C51.4219 213.049 49.7305 227.373 49.7305 227.373C49.7305 227.373 48.8917 245.311 27.0889 210.882L16.3838 219.493C16.3838 219.497 36.4108 248.634 65.7383 249.941Z" fill="#347C17"/>
<path d="M62.234 214.179C66.201 217.331 69.6483 221.525 71.7644 226.313C73.8546 231.045 74.2778 234.673 73.2534 239.464C72.6324 242.369 69.8446 250.695 65.7379 249.942C65.7456 249.944 79.1404 252.122 88.2937 237.936L66.7393 207.552C63.562 208.692 60.9719 210.212 58.8604 211.907C60.0503 212.574 61.1851 213.346 62.234 214.179Z" fill="#C6C6C6"/>
<path d="M85.8347 241.693C86.0371 241.59 86.2334 241.465 86.4204 241.316L88.187 239.897C89.6515 238.716 89.9413 236.498 88.8341 234.939L69.5447 207.746C68.4391 206.185 66.3551 205.876 64.8906 207.054L63.1225 208.475C62.937 208.626 62.7714 208.791 62.6211 208.973L85.8347 241.693Z" fill="#8C1F14"/>
<path d="M77.5602 222.932C78.9955 225.905 80.5842 229.327 80.7881 232.717C80.8249 233.298 80.8249 233.921 80.7559 234.533L85.8593 241.725C86.0617 241.622 86.2595 241.498 86.4451 241.351L88.2116 239.93C89.6761 238.75 89.9659 236.532 88.8603 234.974L69.5693 207.778C68.4637 206.22 66.3797 205.91 64.9152 207.089L63.5903 208.154C65.8246 209.202 67.7859 210.86 69.6766 212.486C73.0993 215.431 75.5759 218.816 77.5602 222.932Z" fill="#C6C6C6"/>
<path d="M85.6675 241.459L62.8404 209.279C62.3681 209.532 61.9142 209.795 61.4756 210.066L84.5834 242.639C84.9483 242.266 85.3087 241.871 85.6675 241.459Z" fill="white"/>
<path d="M52.7715 228.649L56.4411 233.821C57.792 229.314 60.3345 223.492 64.9564 219.906C62.1302 216.932 59.3071 215.887 59.3071 215.887C53.7652 219.664 52.7715 228.649 52.7715 228.649Z" fill="white"/>
<path d="M1.30957 159.11C1.30957 159.11 3.00251 144.786 18.3187 139.286L28.3185 153.385L29.8734 155.573L39.8731 169.671C30.7183 183.86 17.3189 181.678 17.3189 181.678C17.3189 181.678 2.19744 179.48 27.334 211.226L16.6289 219.837C16.6289 219.837 -5.52662 189.51 1.30957 159.11Z" fill="#347C17"/>
<path d="M32.6531 172.476C30.8927 167.547 28.045 162.871 24.2988 159.394C20.597 155.96 17.4365 154.536 12.8285 154.275C10.033 154.118 1.75225 154.696 1.30908 159.11C1.30908 159.104 3.00356 144.786 18.3183 139.286L39.8726 169.671C37.9727 172.614 35.8918 174.852 33.7848 176.552C33.5042 175.149 33.1177 173.779 32.6531 172.476Z" fill="#C6C6C6"/>
<path d="M14.2524 140.777C14.3997 140.598 14.5668 140.429 14.7539 140.279L16.5204 138.86C17.9849 137.681 20.0689 137.989 21.1745 139.549L40.4655 166.742C41.5711 168.303 41.2797 170.521 39.8168 171.7L38.0503 173.121C37.8632 173.271 37.6669 173.395 37.4645 173.496L14.2524 140.777Z" fill="#8C1F14"/>
<path d="M28.9351 154.383C26.641 152.101 23.9866 149.539 20.9795 148.401C20.4657 148.206 19.903 148.033 19.331 147.938L14.2261 140.743C14.3748 140.565 14.542 140.398 14.7275 140.245L16.4941 138.826C17.9585 137.647 20.0425 137.959 21.1481 139.515L40.4391 166.709C41.5447 168.269 41.2549 170.488 39.7905 171.666L38.4655 172.73C38.1297 170.157 37.1682 167.694 36.2144 165.311C34.4893 161.002 32.1109 157.541 28.9351 154.383Z" fill="#C6C6C6"/>
<path d="M14.4189 141.017L37.2445 173.193C36.8872 173.608 36.5253 174 36.1619 174.377L13.0557 141.802C13.4942 141.529 13.9466 141.268 14.4189 141.017Z" fill="white"/>
<path d="M16.9953 178.211L13.3257 173.039C17.7666 172.887 23.7195 171.875 28.2233 168.12C30.1386 171.829 30.3088 175.005 30.3088 175.005C25.3833 179.651 16.9953 178.211 16.9953 178.211Z" fill="white"/>
<path d="M69.749 178.338C69.749 178.338 75.3385 188.336 69.749 196.725C69.749 196.725 86.9253 192.804 87.0358 180.683L69.749 178.338Z" fill="#347C17"/>
<path d="M69.749 178.338C69.749 178.338 75.3385 188.336 69.749 196.725C69.749 196.725 86.9253 192.804 87.0358 180.683L69.749 178.338Z" fill="#C6C6C6"/>
<path d="M118.635 159.319C118.635 174.061 102.949 186.01 83.5996 186.01C64.2503 186.01 48.563 174.062 48.563 159.319C48.563 144.577 64.2488 132.624 83.5996 132.624C102.95 132.624 118.635 144.577 118.635 159.319Z" fill="#347C17"/>
<path d="M118.536 157.401C117.376 168.867 104.803 177.901 89.4543 177.901C73.3391 177.901 60.2755 167.946 60.2755 155.67C60.2755 143.39 73.3391 133.44 89.4543 133.44C90.6672 133.44 91.8603 133.502 93.0334 133.611C90.0309 132.973 86.8689 132.625 83.601 132.625C64.2518 132.625 48.5645 144.576 48.5645 159.32C48.5645 174.062 64.2503 186.011 83.601 186.011C102.95 186.011 118.636 174.063 118.636 159.32C118.635 158.671 118.595 158.036 118.536 157.401Z" fill="#C6C6C6"/>
<path d="M107.299 151.325C107.299 156.81 99.2025 161.26 89.215 161.26C79.2275 161.26 71.1309 156.81 71.1309 151.325C71.1309 145.839 79.2275 141.391 89.215 141.391C99.2025 141.391 107.299 145.839 107.299 151.325Z" fill="white"/>
<path d="M73.1999 159.318C73.1999 161.602 71.4609 163.456 69.3126 163.456C67.1672 163.456 65.4268 161.602 65.4268 159.318C65.4268 157.031 67.1657 155.178 69.3126 155.178C71.4609 155.178 73.1999 157.031 73.1999 159.318Z" fill="white"/>
<path d="M70.0594 155.254C69.8186 155.207 69.5702 155.178 69.3126 155.178C67.1672 155.178 65.4268 157.031 65.4268 159.318C65.4268 161.602 67.1657 163.456 69.3126 163.456C69.9689 163.456 70.5869 163.281 71.1313 162.974C68.6685 161.432 68.3143 157.493 70.0594 155.254Z" fill="#DADADA"/>
<path d="M87.4875 159.318C87.4875 161.602 85.7485 163.456 83.6002 163.456C81.4533 163.456 79.7144 161.602 79.7144 159.318C79.7144 157.031 81.4533 155.178 83.6002 155.178C85.747 155.178 87.4875 157.031 87.4875 159.318Z" fill="white"/>
<path d="M84.3454 155.254C84.1047 155.207 83.8562 155.178 83.6002 155.178C81.4533 155.178 79.7144 157.031 79.7144 159.318C79.7144 161.602 81.4533 163.456 83.6002 163.456C84.2565 163.456 84.8729 163.281 85.4173 162.974C82.9546 161.432 82.6003 157.493 84.3454 155.254Z" fill="#DADADA"/>
<path d="M101.773 159.318C101.773 161.602 100.034 163.456 97.8858 163.456C95.739 163.456 94 161.602 94 159.318C94 157.031 95.739 155.178 97.8858 155.178C100.034 155.178 101.773 157.031 101.773 159.318Z" fill="white"/>
<path d="M98.6325 155.254C98.3918 155.207 98.1434 155.178 97.8873 155.178C95.7404 155.178 94.0015 157.031 94.0015 159.318C94.0015 161.602 95.7404 163.456 97.8873 163.456C98.5436 163.456 99.1616 163.281 99.7044 162.974C97.2417 161.432 96.8859 157.493 98.6325 155.254Z" fill="#DADADA"/>
<defs>
<linearGradient id="paint0_linear_12_4" x1="303.363" y1="197.399" x2="303.363" y2="304.139" gradientUnits="userSpaceOnUse">
<stop stop-color="white"/>
<stop offset="1" stop-color="white"/>
</linearGradient>
<linearGradient id="paint1_linear_12_4" x1="433.933" y1="447.23" x2="375.293" y2="447.23" gradientUnits="userSpaceOnUse">
<stop stop-color="white"/>
<stop offset="1" stop-color="white"/>
</linearGradient>
<linearGradient id="paint2_linear_12_4" x1="158.699" y1="448.64" x2="217.336" y2="448.64" gradientUnits="userSpaceOnUse">
<stop stop-color="white"/>
<stop offset="1" stop-color="white"/>
</linearGradient>
<linearGradient id="paint3_linear_12_4" x1="238.351" y1="190.379" x2="357.034" y2="190.379" gradientUnits="userSpaceOnUse">
<stop stop-color="white"/>
<stop offset="1" stop-color="white"/>
</linearGradient>
<linearGradient id="paint4_linear_12_4" x1="244.361" y1="195.931" x2="349.628" y2="195.931" gradientUnits="userSpaceOnUse">
<stop stop-color="white"/>
<stop offset="1" stop-color="white"/>
</linearGradient>
<linearGradient id="paint5_linear_12_4" x1="230.917" y1="232.782" x2="259.721" y2="232.782" gradientUnits="userSpaceOnUse">
<stop stop-color="white"/>
<stop offset="1" stop-color="white"/>
</linearGradient>
<linearGradient id="paint6_linear_12_4" x1="359.483" y1="263.452" x2="362.317" y2="263.452" gradientUnits="userSpaceOnUse">
<stop stop-color="white"/>
<stop offset="1" stop-color="white"/>
</linearGradient>
<linearGradient id="paint7_linear_12_4" x1="228.626" y1="263.452" x2="231.459" y2="263.452" gradientUnits="userSpaceOnUse">
<stop stop-color="white"/>
<stop offset="1" stop-color="white"/>
</linearGradient>
<linearGradient id="paint8_linear_12_4" x1="297.053" y1="438.911" x2="297.053" y2="543.153" gradientUnits="userSpaceOnUse">
<stop stop-color="white"/>
<stop offset="1" stop-color="white"/>
</linearGradient>
<linearGradient id="paint9_linear_12_4" x1="251.282" y1="62.9616" x2="252.723" y2="62.9616" gradientUnits="userSpaceOnUse">
<stop stop-color="white"/>
<stop offset="1" stop-color="white"/>
</linearGradient>
<linearGradient id="paint10_linear_12_4" x1="194.108" y1="62.9616" x2="195.549" y2="62.9616" gradientUnits="userSpaceOnUse">
<stop stop-color="white"/>
<stop offset="1" stop-color="white"/>
</linearGradient>
</defs>
</svg>
